<svg width="32" height="32" viewBox="0 0 32 32" fill="none" xmlns="http://www.w3.org/2000/svg">
  <defs>
    <linearGradient id="faviconGradient" x1="0%" y1="0%" x2="100%" y2="100%">
      <stop offset="0%" style="stop-color:#3B82F6" />
      <stop offset="50%" style="stop-color:#8B5CF6" />
      <stop offset="100%" style="stop-color:#EC4899" />
    </linearGradient>
    
    <linearGradient id="accentGradient" x1="0%" y1="0%" x2="100%" y2="100%">
      <stop offset="0%" style="stop-color:#10B981" />
      <stop offset="100%" style="stop-color:#059669" />
    </linearGradient>
  </defs>
  
  <!-- Background Circle -->
  <circle cx="16" cy="16" r="15" fill="url(#faviconGradient)"/>
  
  <!-- Inner Glow -->
  <circle cx="16" cy="16" r="10" fill="#FFFFFF" opacity="0.3"/>
  
  <!-- Verification Shield (V) - Top Left -->
  <path d="M6 6 L6 2 L10 2 L10 6 L8 8 Z" fill="url(#accentGradient)"/>
  <path d="M7 3 L7 5 L8 6 L9 5 L9 3 Z" fill="#FFFFFF" opacity="0.8"/>
  
  <!-- Checkmark -->
  <path d="M7.5 4 L8.5 5 L9.5 3.5" stroke="#FFFFFF" stroke-width="0.8" stroke-linecap="round" stroke-linejoin="round" fill="none"/>
  
  <!-- Prediction Eye (P) - Top Right -->
  <ellipse cx="22" cy="6" rx="3" ry="4" fill="url(#faviconGradient)"/>
  <ellipse cx="22" cy="6" rx="2" ry="3" fill="#FFFFFF" opacity="0.6"/>
  <circle cx="22" cy="6" r="1" fill="url(#faviconGradient)"/>
  <circle cx="22.3" cy="5.7" r="0.3" fill="#FFFFFF" opacity="0.8"/>
  
  <!-- Oracle Nodes -->
  <circle cx="4" cy="16" r="1.5" fill="url(#faviconGradient)" opacity="0.7"/>
  <circle cx="28" cy="16" r="1.5" fill="url(#faviconGradient)" opacity="0.7"/>
  <circle cx="16" cy="4" r="1.5" fill="url(#faviconGradient)" opacity="0.7"/>
  <circle cx="16" cy="28" r="1.5" fill="url(#faviconGradient)" opacity="0.7"/>
  
  <!-- Central Dot -->
  <circle cx="16" cy="16" r="1.5" fill="#FFFFFF" opacity="0.9"/>
</svg>
