<svg width="120" height="120" viewBox="0 0 120 120" fill="none" xmlns="http://www.w3.org/2000/svg">
  <!-- Background Circle with Gradient -->
  <defs>
    <linearGradient id="bgGradient" x1="0%" y1="0%" x2="100%" y2="100%">
      <stop offset="0%" style="stop-color:#3B82F6;stop-opacity:0.1" />
      <stop offset="50%" style="stop-color:#8B5CF6;stop-opacity:0.15" />
      <stop offset="100%" style="stop-color:#EC4899;stop-opacity:0.1" />
    </linearGradient>
    
    <linearGradient id="mainGradient" x1="0%" y1="0%" x2="100%" y2="100%">
      <stop offset="0%" style="stop-color:#3B82F6" />
      <stop offset="50%" style="stop-color:#8B5CF6" />
      <stop offset="100%" style="stop-color:#EC4899" />
    </linearGradient>
    
    <linearGradient id="accentGradient" x1="0%" y1="0%" x2="100%" y2="100%">
      <stop offset="0%" style="stop-color:#10B981" />
      <stop offset="100%" style="stop-color:#059669" />
    </linearGradient>
    
    <radialGradient id="glowGradient" cx="50%" cy="50%" r="50%">
      <stop offset="0%" style="stop-color:#FFFFFF;stop-opacity:0.3" />
      <stop offset="70%" style="stop-color:#FFFFFF;stop-opacity:0.1" />
      <stop offset="100%" style="stop-color:#FFFFFF;stop-opacity:0" />
    </radialGradient>
  </defs>
  
  <!-- Background Circle -->
  <circle cx="60" cy="60" r="55" fill="url(#bgGradient)" stroke="url(#mainGradient)" stroke-width="2" opacity="0.3"/>
  
  <!-- Central Crystal Ball (Oracle/Prediction) -->
  <circle cx="60" cy="60" r="25" fill="url(#mainGradient)" opacity="0.9"/>
  
  <!-- Inner Glow -->
  <circle cx="60" cy="60" r="20" fill="url(#glowGradient)"/>
  
  <!-- Crystal Ball Inner Pattern -->
  <circle cx="55" cy="55" r="8" fill="#FFFFFF" opacity="0.4"/>
  <circle cx="65" cy="65" r="5" fill="#FFFFFF" opacity="0.3"/>
  
  <!-- Verification Shield (V) -->
  <path d="M45 35 L45 25 L55 25 L55 35 L50 40 Z" fill="url(#accentGradient)" opacity="0.9"/>
  <path d="M47 27 L47 33 L50 36 L53 33 L53 27 Z" fill="#FFFFFF" opacity="0.8"/>
  
  <!-- Checkmark inside Shield -->
  <path d="M48 30 L49.5 31.5 L52 29" stroke="#FFFFFF" stroke-width="1.5" stroke-linecap="round" stroke-linejoin="round" fill="none"/>
  
  <!-- Prediction Eye (P) -->
  <ellipse cx="75" cy="35" rx="8" ry="12" fill="url(#mainGradient)" opacity="0.9"/>
  <ellipse cx="75" cy="35" rx="5" ry="8" fill="#FFFFFF" opacity="0.6"/>
  <circle cx="75" cy="35" r="3" fill="url(#mainGradient)"/>
  <circle cx="76" cy="33" r="1" fill="#FFFFFF" opacity="0.8"/>
  
  <!-- Oracle Nodes (O) - Connecting the elements -->
  <circle cx="30" cy="60" r="4" fill="url(#mainGradient)" opacity="0.7"/>
  <circle cx="90" cy="60" r="4" fill="url(#mainGradient)" opacity="0.7"/>
  <circle cx="60" cy="30" r="4" fill="url(#mainGradient)" opacity="0.7"/>
  <circle cx="60" cy="90" r="4" fill="url(#mainGradient)" opacity="0.7"/>
  
  <!-- Connection Lines -->
  <line x1="34" y1="60" x2="50" y2="50" stroke="url(#mainGradient)" stroke-width="2" opacity="0.4"/>
  <line x1="86" y1="60" x2="70" y2="50" stroke="url(#mainGradient)" stroke-width="2" opacity="0.4"/>
  <line x1="60" y1="34" x2="55" y2="45" stroke="url(#mainGradient)" stroke-width="2" opacity="0.4"/>
  <line x1="60" y1="86" x2="55" y2="75" stroke="url(#mainGradient)" stroke-width="2" opacity="0.4"/>
  
  <!-- Floating Particles -->
  <circle cx="25" cy="25" r="1.5" fill="url(#accentGradient)" opacity="0.6"/>
  <circle cx="95" cy="25" r="1.5" fill="url(#accentGradient)" opacity="0.6"/>
  <circle cx="25" cy="95" r="1.5" fill="url(#accentGradient)" opacity="0.6"/>
  <circle cx="95" cy="95" r="1.5" fill="url(#accentGradient)" opacity="0.6"/>
  
  <!-- Central Dot -->
  <circle cx="60" cy="60" r="3" fill="#FFFFFF" opacity="0.9"/>
</svg>
