<svg width="200" height="60" viewBox="0 0 200 60" fill="none" xmlns="http://www.w3.org/2000/svg">
  <defs>
    <linearGradient id="textGradient" x1="0%" y1="0%" x2="100%" y2="0%">
      <stop offset="0%" style="stop-color:#3B82F6" />
      <stop offset="50%" style="stop-color:#8B5CF6" />
      <stop offset="100%" style="stop-color:#EC4899" />
    </linearGradient>
    
    <linearGradient id="accentGradient" x1="0%" y1="0%" x2="100%" y2="100%">
      <stop offset="0%" style="stop-color:#10B981" />
      <stop offset="100%" style="stop-color:#059669" />
    </linearGradient>
  </defs>
  
  <!-- Icon -->
  <circle cx="30" cy="30" r="20" fill="url(#textGradient)" opacity="0.1"/>
  <circle cx="30" cy="30" r="12" fill="url(#textGradient)"/>
  <circle cx="30" cy="30" r="8" fill="#FFFFFF" opacity="0.3"/>
  
  <!-- Verification Shield -->
  <path d="M18 18 L18 12 L22 12 L22 18 L20 20 Z" fill="url(#accentGradient)"/>
  <path d="M19 13 L19 17 L20 18 L21 17 L21 13 Z" fill="#FFFFFF" opacity="0.8"/>
  <path d="M19.5 14 L20.5 15 L21.5 13.5" stroke="#FFFFFF" stroke-width="0.8" stroke-linecap="round" stroke-linejoin="round" fill="none"/>
  
  <!-- Prediction Eye -->
  <ellipse cx="38" cy="18" rx="4" ry="6" fill="url(#textGradient)"/>
  <ellipse cx="38" cy="18" rx="2.5" ry="4" fill="#FFFFFF" opacity="0.6"/>
  <circle cx="38" cy="18" r="1.5" fill="url(#textGradient)"/>
  <circle cx="38.5" cy="17.5" r="0.5" fill="#FFFFFF" opacity="0.8"/>
  
  <!-- Central Dot -->
  <circle cx="30" cy="30" r="2" fill="#FFFFFF" opacity="0.9"/>
  
  <!-- Text -->
  <text x="60" y="25" font-family="Arial, sans-serif" font-size="24" font-weight="bold" fill="url(#textGradient)">VPO</text>
  <text x="60" y="45" font-family="Arial, sans-serif" font-size="12" font-weight="normal" fill="#6B7280">VERIFIABLE PREDICTION ORACLE</text>
</svg>
